<?xml version="1.0" encoding="UTF-8" standalone="no"?>
<!-- Created with Inkscape (http://www.inkscape.org/) -->

<svg
   xmlns:dc="http://purl.org/dc/elements/1.1/"
   xmlns:cc="http://creativecommons.org/ns#"
   xmlns:rdf="http://www.w3.org/1999/02/22-rdf-syntax-ns#"
   xmlns:svg="http://www.w3.org/2000/svg"
   xmlns="http://www.w3.org/2000/svg"
   xmlns:sodipodi="http://sodipodi.sourceforge.net/DTD/sodipodi-0.dtd"
   xmlns:inkscape="http://www.inkscape.org/namespaces/inkscape"
   width="101.58073mm"
   height="103.46722mm"
   viewBox="0 0 101.58073 103.46722"
   version="1.1"
   id="svg84"
   sodipodi:docname="BlueSVG.svg"
   inkscape:version="0.92.3 (2405546, 2018-03-11)">
  <defs
     id="defs78" />
  <sodipodi:namedview
     id="base"
     pagecolor="#ffffff"
     bordercolor="#666666"
     borderopacity="1.0"
     inkscape:pageopacity="0.0"
     inkscape:pageshadow="2"
     inkscape:zoom="0.35"
     inkscape:cx="202.09764"
     inkscape:cy="264.27124"
     inkscape:document-units="mm"
     inkscape:current-layer="layer1"
     showgrid="false"
     showguides="false"
     inkscape:window-width="3840"
     inkscape:window-height="2004"
     inkscape:window-x="-16"
     inkscape:window-y="-16"
     inkscape:window-maximized="1" />
  <metadata
     id="metadata81">
    <rdf:RDF>
      <cc:Work
         rdf:about="">
        <dc:format>image/svg+xml</dc:format>
        <dc:type
           rdf:resource="http://purl.org/dc/dcmitype/StillImage" />
        <dc:title />
      </cc:Work>
    </rdf:RDF>
  </metadata>
  <g
     inkscape:label="Layer 1"
     inkscape:groupmode="layer"
     id="layer1"
     transform="translate(-49.715845,-85.049779)">
    <path
       style="fill:#000000;stroke-width:0.17638889"
       d="m 62.966414,188.33571 c -1.337615,-0.33565 -2.825498,-1.2941 -4.36541,-2.81207 -4.623211,-4.55733 -7.300599,-12.1175 -8.652194,-24.43128 -0.307737,-2.80366 -0.311601,-15.44021 -0.0056,-18.25625 2.019823,-18.58681 8.044385,-32.48535 18.735057,-43.221371 7.720092,-7.752843 16.307745,-12.382585 26.370139,-14.216561 2.550236,-0.464808 10.505944,-0.464449 13.052774,5.82e-4 5.92515,1.081899 11.12124,3.127813 15.89866,6.259954 9.9476,6.521779 17.32386,16.523596 21.54731,29.216976 2.58984,7.78366 4.10407,16.23375 5.43663,30.33888 0.41408,4.38311 0.41769,11.57894 0.007,14.55209 -1.06719,7.73131 -3.60237,13.68684 -7.50254,17.62462 -3.06716,3.09672 -6.09453,4.42885 -10.04696,4.42093 -3.01786,-0.006 -5.05363,-0.75423 -7.08413,-2.60353 -1.78068,-1.62176 -2.5361,-1.89843 -3.77268,-1.38175 -0.32249,0.13474 -1.59068,0.92849 -2.81819,1.76389 l -2.23182,1.5189 h -1.37486 c -1.8095,0 -2.6439,-0.4184 -4.784,-2.39891 -3.08976,-2.85934 -3.87166,-2.86649 -6.85827,-0.0628 -1.21487,1.14048 -2.08745,1.79106 -3.02186,2.25307 -1.30295,0.64421 -1.332,0.64956 -3.52778,0.64956 -2.094302,0 -2.266461,-0.0274 -3.184147,-0.50591 -1.374592,-0.71682 -2.295823,-1.5121 -3.702601,-3.19638 -0.937341,-1.12224 -1.410003,-1.53835 -2.005979,-1.76595 -0.746171,-0.28497 -0.813415,-0.28285 -1.564171,0.0493 -0.841193,0.37209 -1.585071,1.04353 -2.693994,2.43164 -2.618888,3.27823 -3.468734,3.95996 -4.928553,3.95362 -1.08748,-0.005 -2.081881,-0.43603 -3.414162,-1.48084 -2.508118,-1.96691 -4.101774,-1.98431 -7.459813,-0.0814 -2.385331,1.35168 -4.364281,1.80355 -6.048154,1.38102 z m 2.71326,-0.3538 c 0.436562,-0.0976 1.80343,-0.69141 3.037483,-1.31949 4.045261,-2.05886 5.241035,-2.05558 7.898628,0.0217 1.214079,0.94896 2.360831,1.47506 3.226125,1.48008 1.296386,0.008 2.248221,-0.74289 4.503095,-3.55013 2.772384,-3.45152 4.325479,-3.92195 6.18838,-1.87445 2.519687,2.76938 2.916726,3.1328 4.132251,3.78241 1.255767,0.67111 1.279114,0.6759 3.293205,0.6759 1.970408,0 2.067079,-0.0184 3.377059,-0.64401 1.02372,-0.48887 1.75673,-1.03282 3.04279,-2.25799 0.93181,-0.88769 1.96943,-1.72898 2.30582,-1.86953 1.48042,-0.61856 2.57742,-0.17821 4.85637,1.9494 1.99229,1.85999 2.98109,2.377 4.55068,2.37944 1.31589,0.002 1.65144,-0.14996 3.93446,-1.78223 1.91337,-1.36798 2.68939,-1.74383 3.6005,-1.74383 0.85458,0 1.50975,0.36939 2.82441,1.59242 1.92713,1.7928 4.14957,2.63142 6.99066,2.63786 5.74723,0.013 10.58519,-3.52914 13.79692,-10.10156 1.72125,-3.52234 2.75789,-7.11121 3.39905,-11.7676 0.73222,-5.31778 0.19676,-15.23778 -1.4472,-26.81112 -2.06265,-14.52085 -5.97829,-25.46062 -12.24806,-34.21944 -7.75745,-10.837098 -19.15952,-17.803586 -31.20137,-19.063541 -2.54956,-0.266764 -8.358682,-0.12073 -10.516117,0.264363 -8.019352,1.43142 -15.055044,4.659404 -21.836559,10.018639 -2.162384,1.70887 -6.823382,6.361019 -8.414136,8.398159 -7.570809,9.6953 -12.212046,20.97296 -14.094939,34.24905 -0.726471,5.12227 -0.806282,6.47786 -0.804829,13.67014 0.0015,7.38141 0.139519,9.41441 0.976018,14.37569 1.865639,11.06511 5.404832,18.13941 10.409438,20.80683 1.57103,0.83735 2.744542,1.03281 4.219868,0.70286 z"
       id="path137"
       inkscape:connector-curvature="0" />
    <path
       style="fill:#00cbf8;fill-opacity:1;stroke-width:2.85714293"
       d="m 225.64538,700.36163 c -20.13023,-17.67457 -31.96519,-54.66897 -34.7678,-108.6792 -3.0418,-58.61975 8.14294,-113.3407 32.88261,-160.87703 15.78965,-30.33921 51.9021,-69.10632 78.13804,-83.88203 48.2676,-27.18362 103.52656,-30.13451 147.45507,-7.87425 63.7823,32.32094 99.05459,91.6295 113.83564,191.40886 7.20626,48.64575 6.84612,95.70362 -0.92105,120.34742 -11.97089,37.98143 -33.94035,57.65329 -61.43638,55.01126 -8.85128,-0.85049 -16.23568,-3.55083 -20.3946,-7.45795 -8.07411,-7.58525 -18.2144,-7.73614 -27.57977,-0.41045 -10.15442,7.94291 -18.67782,7.04608 -31.58057,-3.32283 -12.40488,-9.96883 -13.86236,-9.76157 -33.84195,4.81257 -13.97321,10.19277 -23.26598,9.1524 -38.86857,-4.35154 -14.88505,-12.88292 -16.60739,-12.66929 -32.69796,4.05585 -11.51575,11.96992 -13.97829,12.31495 -28.44988,3.98618 l -10.85674,-6.24835 -14.52468,6.24835 c -19.27067,8.29 -24.22757,7.91314 -36.39141,-2.76686 z"
       id="path139"
       inkscape:connector-curvature="0"
       transform="scale(0.26458333)" />
  </g>
</svg>
